<?xml version='1.0' encoding='utf-8'?>
<svg xmlns="http://www.w3.org/2000/svg" width="1522.4mm" height="1522.4mm" version="1.1" viewBox="0 0 1522.4 1522.4"><g transform="translate(1955 6463.2)"><g transform="translate(0 -291.04)"><g transform="matrix(.71099 0 0 .71099 879.71 1097.9)"><path d="m-3986.9-10225h2141.2v2141.2h-2141.2z" fill="#46373f" stop-color="#000000" stroke-linecap="square" stroke-width="10.971" style="paint-order:markers stroke fill"/><path d="m-3012.7-9826.4c-17.735 0.5486-35.655 4.6472-52.261 12.615-28.167 13.516-44.625 35.006-57.102 74.563-10.146 32.162-11.525 45.356-10.144 97.028 0.6936 25.955 1.6926 51.09 2.2199 55.857l0.9575 8.6677-4.3894-7.4131c-25.816-43.601-77.651-112.31-105.87-140.33-19.71-19.572-39.667-33.396-55.085-38.158-15.348-4.7429-23.879-4.8126-38.286-0.3154-21.962 6.8556-37.829 20.055-64.079 53.31-22.75 28.821-28.044 36.88-37.748 57.442-14.521 30.77-21.669 69.89-19.389 106.11 3.5402 56.225 21.923 85.783 85.892 138.09 30.859 25.235 38.524 31.87 38.524 33.35 0 1.3259-48.966-15.992-70.505-24.935-27.932-11.598-68.848-25.539-84.361-28.743-7.9599-1.6441-22.528-2.9459-32.372-2.9459-21.964 0.053-29.926 3.218-42.015 16.703-9.0137 10.055-30.757 49.528-43.061 78.174-17.103 39.822-21.812 78.694-13 107.33 9.1681 29.789 25.518 50.919 46.948 60.673 13.876 6.315 40.11 13.68 59.056 16.58l15.774 2.4146-11.77 4.4258c-15.588 5.8599-40.437 22.239-56.419 37.19-48.592 45.456-63.15 102.19-36.252 141.28 8.356 12.145 19.313 19.476 59.23 39.628 26.756 13.507 37.557 17.969 46.229 19.1l11.315 1.4735-8.6674 5.5313c-45.954 29.32-56.106 40.935-67.194 76.877-5.9071 19.149-5.6455 46.314 0.5938 61.486 8.7203 21.207 27.917 40.706 52.155 52.977 4.2375 2.1454 13.696 8.3356 21.019 13.756 23.117 17.108 42.301 19.168 64.252 6.8985 4.7469-2.6529 8.841-4.8232 9.1032-4.8232 0.2592 0 1.0551 4.5504 1.7659 10.112 1.7903 14.001 6.7552 33.488 11.164 43.82 6.694 15.687 42.743 73.685 52.339 84.206 20.279 22.234 36.772 26.185 66.743 15.988 41.514-14.125 61.11-26.847 75.397-48.953 7.1879-11.124 7.3627-11.246 7.3627-5.2313 0 9.9646 5.4296 33.365 10.819 46.629 7.7414 19.05 18.772 33.052 39.076 49.602 21.824 17.788 26.72 21.094 36.318 24.52 9.8406 3.5117 20.767 3.2589 32.245-0.7465 12.58-4.3894 78.023-48.478 85.684-57.724 8.4863-10.242 14.87-24.686 20.638-46.69l5.0227-19.162 12.955 26.622c27.028 55.538 40.979 74.596 62.206 84.972 23.519 11.497 60.521 11.775 105.86 0.7963 37.582-9.1001 58.154-22.955 74.2-49.973 9.7563-16.427 23.434-52.729 31.4-83.334 5.1027-19.666 5.7659-25.02 5.1568-42.709-0.5949-17.287-1.4444-21.694-5.8448-30.337-2.8312-5.5616-4.9012-10.112-4.5967-10.112 0.3033 0 8.9002 9.8153 19.103 21.813 24.244 28.505 33.252 36.708 55.306 50.347 51.356 31.761 83.844 36.397 121.49 17.338 28.221-14.287 49.223-31.708 77.09-63.943 20.291-23.473 25.054-32.123 26.312-47.799 1.2764-15.899-3.2098-25.512-20.296-43.502l-13.476-14.19 13.75-0.1794c11.308-0.1472 17.171-1.5534 33.012-7.9139 26.655-10.701 27.048-10.774 61.637-11.105 35.309-0.3389 42.241-2.3134 57.488-16.367 8.9028-8.2066 45.166-60.92 53.712-78.077 19.3-38.751 18.227-70.582-3.4819-103.26-11.937-17.968-64.035-60.711-93.459-76.676l-13.623-7.3933 10.688-6.1144c5.8782-3.3637 18.753-13.296 28.609-22.072 35.387-31.506 49.891-51.69 52.573-73.157 2.5386-20.315-9.9922-52.497-27.079-69.548-9.0293-9.01-60.406-42.194-82.787-53.472-19.612-9.8827-51.274-19.028-73.169-21.135-5.1485-0.496-4.3742-1.1269 7.1023-5.7963 7.0851-2.8824 18.59-6.1534 25.567-7.2683 15.255-2.4368 29.403-8.4513 45.338-19.273 9.5838-6.5079 14.317-11.795 24.791-27.685 7.1197-10.802 14.535-24.693 16.476-30.867 6.3357-20.142 1.6722-40.816-13.847-61.398-8.9817-11.911-44.82-43.138-64.017-55.78-29.824-19.64-68.032-34.154-89.947-34.208-11.652-0.03-36.122 8.2525-51.055 17.259-7.0833 4.2721-13.32 7.7679-13.861 7.7679-0.5411 0 0.3521-3.6838 1.9839-8.1866 4.1194-11.365 2.336-26.985-5.784-50.682-7.3181-21.357-8.2891-26.613-10.677-57.741-2.1119-27.524-6.3808-37.764-21.635-51.887-13.551-12.545-41.706-27.071-58.461-30.162-7.3391-1.3526-23.86-1.7158-45.265-0.991-39.559 1.34-58.042 5.1135-82.824 16.907-15.093 7.1826-18.605 10.074-44.935 37-15.709 16.066-33.824 36.145-40.255 44.62-10.936 14.412-28.452 46.64-28.452 52.348 0 1.4011-0.8667 2.5471-1.9262 2.5471-1.0591 0-1.9274-3.47-1.9274-7.7115 0-15.019-11.656-85.179-16.673-100.36-5.5555-16.808-29.764-61.803-43.938-81.667-21.249-29.778-59.369-45.756-98.387-44.548z" fill="#46373f" stroke-width="1.4065"/><path d="m-2671.1-8509.4c-17.606 0.4604-28.179 5.6743-44.396 20.602-17.691 16.285-27.56 22.95-39.378 26.597-12.632 3.8983-42.367 6.5638-86.595 7.7614l-36.811 0.9958-8.4545-9.0329c-10.363-11.073-16.546-14.427-26.59-14.427-5.8984 0-9.3426 1.4153-14.52 5.9605-10.38 9.1135-12.774 19.67-13.933 61.456-1.0359 37.349-0.5962 41.085 9.0486 76.962 3.4982 13.012 3.6613 16.346 1.7475 35.489-3.5509 35.523 1.843 59.295 22.567 99.453 16.623 32.211 30.662 45.655 53.45 51.185 16.718 4.0573 49.176 3.2154 81.023-2.1025 15.836-2.6444 34.47-4.7943 41.412-4.7943 6.9413 0 25.808-0.9686 41.925-2.1682 26.578-1.9783 32.58-1.7871 64.526 2.0404 30.742 3.6849 42.939 4.142 95.896 3.6111l60.673-0.6091 11.189-5.2419c6.5632-3.0745 15.457-9.6139 21.512-15.816 22.625-23.173 29.567-51.703 17.376-71.42-3.1797-5.1433-11.413-14.05-18.297-19.794-28.912-24.121-52.096-47.232-62.679-62.483-6.6812-9.6276-23.76-28.511-43.155-47.715-34.8-34.456-31.772-29.871-46.413-70.304-7.3786-20.378-15.912-34.484-28.422-46.98-13.473-13.459-24.895-18.353-44.687-19.146-2.8389-0.115-5.4976-0.1449-8.0127-0.081z" fill="#ffa98d" stroke-width="1.4065"/><path d="m-3219.4-8534.1c-8.0174-0.1748-16.101 3.6189-24.658 11.507-10.712 9.8737-15.899 18.655-27.659 46.817-5.0969 12.206-14.029 30.605-19.849 40.886-5.82 10.282-14.652 28.229-19.626 39.882-13.178 30.872-14.605 33.438-38.661 69.494-23.597 35.369-32.014 52.907-44.3 92.303-6.09 19.529-7.2346 25.951-7.3674 41.412-0.1403 16.365 0.3966 19.348 5.0839 28.236 2.8825 5.4655 9.0099 13.025 13.617 16.801 23.597 19.336 50.538 23.328 86.117 12.76 29.844-8.8645 50.656-9.6034 87.828-3.115 15.995 2.7919 40.65 5.9563 54.79 7.0324 14.139 1.0759 26.118 2.3668 26.616 2.8655 2.17 2.1701 45.531 0.6555 58.408-2.0403 15.876-3.324 34.336-11.344 43.023-18.693 11.203-9.4782 27.061-49.531 41.762-105.48l9.8691-37.56 1.4449-40.45c0.7942-22.247 2.4514-49.776 3.6827-61.177 3.7734-34.934-1.8756-57.367-18.242-72.454-6.2184-5.7318-10.56-7.9831-17.357-9.0024-14.729-2.2085-22.061 0.7899-49.394 20.196l-8.9324 6.3412-15.24-2.0509c-18.88-2.5406-52.219-15.575-70.942-27.737-20.466-13.292-31.626-23.209-43.404-38.565-8.244-10.749-12.506-14.579-18.599-16.713-2.6727-0.9357-5.3373-1.4352-8.0098-1.4934z" fill="#e19c34" stroke-width="1.4065"/><path d="m-3461.1-8667.2c-1.7624 0.035-3.5778 0.1495-5.4456 0.3441-15.995 1.6571-30.962 7.9176-53.66 22.442-25.098 16.06-32.772 19.945-68.63 34.739-35.195 14.521-58.15 25.809-73.104 35.949-17.092 11.59-28.301 16.73-53.77 24.654-12.712 3.9556-27.447 9.3757-32.744 12.044-14.044 7.0759-41.217 24.522-65.825 42.261-11.838 8.5343-31.318 21.038-43.288 27.786-28.3 15.953-45.07 31.934-54.501 51.94-5.5478 11.768-7.2222 18.468-9.5809 38.338-1.5716 13.243-3.9372 31.176-5.2559 39.854-2.0613 13.566-1.898 20.376 1.1694 48.586 2.9062 26.73 3.2572 38.078 1.894 61.267-2.4608 41.873-2.0699 56.294 1.7234 63.558 5.9852 11.463 16.274 18.715 30.792 21.706 12.264 2.5262 36.719 0.385 81.232-7.1099l40.45-6.8102 23.541 3.3892c13.351 1.9203 28.357 2.9432 34.67 2.3567 10.805-1.003 117.96-24.294 131.51-28.587 3.708-1.1733 24.593-2.7274 46.41-3.4529l39.667-1.3182 12.694-6.2499c15.218-7.4913 25.916-18.805 37.872-40.048 4.7054-8.3603 16.5-25.789 26.21-38.73 17.392-23.181 20.774-29.21 46.059-82.09 12.66-26.477 12.887-26.791 35.486-49.117 19.804-19.564 23.81-24.628 30.986-39.17 7.0026-14.193 8.2561-18.536 8.3356-28.894 0.1243-15.624-4.7583-30.144-12.656-37.647-3.4194-3.2482-13.152-10.488-21.627-16.09-8.4747-5.6016-21.936-15.879-29.915-22.84-7.9787-6.9611-17.513-14.709-21.187-17.215-6.372-4.3458-10.197-9.039-31.328-38.446-8.9067-12.395-9.1996-13.223-8.153-23.116 1.4957-14.126-1.8091-24.802-10.312-33.305-7.6089-7.6089-17.387-11.228-29.724-10.977z" fill="#e5bec3" stroke-width="1.4065"/><path d="m-2345.2-8686.9c-8.7977-0.4687-16.32 5.9189-23.002 19.386-17.452 35.174-55.76 74.012-89.798 91.04-21.412 10.712-33.582 13.563-52.748 12.357-18.964-1.1941-29.251-4.4948-62.124-19.935-17.719-8.3226-26.404-11.32-34.505-11.906-27.079-1.9584-38.749 17.823-28.513 48.339 8.7983 26.23 34.96 58.15 102.96 125.62 31.289 31.047 48.652 50.1 64.951 71.268 27.069 35.157 34.056 42.83 56.492 62.052 17.703 15.166 30.665 28.617 47.861 49.666 32.524 39.811 59.266 59.045 90.834 65.33 8.1668 1.6258 33.752 3.0897 66.271 3.7924 29.132 0.6289 58.604 2.052 65.49 3.1607 6.8859 1.1096 26.388 6.7386 43.338 12.508 16.95 5.7693 34.284 11.283 38.522 12.253 12.707 2.9107 37.004 2.3702 73.427-1.6337 50.728-5.576 61.04-9.7189 69.217-27.821 4.1132-9.1026 4.5231-13.322 5.7154-58.922 1.094-41.789 0.702-55.008-2.6249-88.603-2.1501-21.717-4.4513-50.754-5.1123-64.526-3.8778-80.778-16.89-117.03-49.129-136.85-1.5888-0.9771-19.357-2.3018-39.486-2.9429-41.928-1.3351-46.995-2.6599-74.433-19.459-47.953-29.36-57.312-33.154-101.11-40.996-34.938-6.2559-49.584-10.796-71.082-22.034-21.794-11.392-37.597-22.965-41.274-30.229-8.5262-16.843-30.599-42.838-40.894-48.164-3.2319-1.6714-6.3062-2.5904-9.2386-2.7467z" fill="#d3a9bf" stroke-width="1.4065"/><path d="m-3610.4-8882.3c-12.981 0.035-16.772 0.9434-31.152 7.4588-26.807 12.146-34.444 14.228-60.222 16.409-30.272 2.5625-39.878 5.8116-69.456 23.498-30.447 18.206-42.278 23.356-74.693 32.517-26.25 7.4186-27.759 7.6282-39.484 5.4673-23.585-4.3454-43.283 4.4117-49.668 22.081-4.2222 11.685-5.5939 83.112-2.0234 105.37 2.9221 18.217 6.6261 77.361 6.6261 105.8 0 10.421-1.6751 27.238-3.8519 38.661-6.3393 33.268-4.6507 47.299 6.5117 54.106 17.584 10.723 47.154-0.9442 90.878-35.858 10.899-8.7035 25.925-19.62 33.392-24.259 7.4663-4.6394 27.683-17.394 44.927-28.344 37.598-23.875 64.93-37.888 107.44-55.082 68.703-27.791 97.58-48.122 99.7-70.195 1.0418-10.84-1.4581-16.503-15.406-34.903-5.2223-6.8891-14.36-22.296-20.308-34.239-14.727-29.57-14.761-34.468-0.431-62.724 9.7578-19.24 10.594-21.904 10.594-34.04 0-14.243-2.6978-19.915-13.261-27.792-4.311-3.2144-8.1428-3.9825-20.106-3.9294z" fill="#af9bce" stroke-width="1.4065"/><path d="m-1948.2-9037.9c-9.5232-0.3351-25.373 0.4051-56.108 1.9231-34.389 1.6985-39.153 2.3798-56.431 8.0662-36.569 12.033-55.4 14.129-78.399 8.7269-22.669-5.3247-23.04-5.3483-27.043-1.7249-8.6213 7.8013-2.64 32.781 16.819 70.236 12.053 23.201 12.482 24.507 11.771 35.89-1.2859 20.569-11.084 36.998-40.246 67.489-13.646 14.267-31.355 34.92-39.352 45.892-18.062 24.783-22.798 27.502-52.385 30.071-25.472 2.2117-33.375 4.2694-40.975 10.664-19.299 16.24-14.592 36.771 14.703 64.129 38.444 35.903 57.528 45.488 128.78 64.672 22.247 5.9906 56.819 16.973 76.825 24.404 40.535 15.057 60.742 21.378 85.538 26.755 21.008 4.555 54.053 4.2534 63.112-0.5769 22.915-12.216 31-38.461 29.188-94.754-0.8626-26.791-2.0079-36.66-6.1675-53.127-3.9752-15.726-4.9309-23.439-4.3059-34.672 1.2948-23.281 12.302-76.52 21.164-102.36l8.1589-23.798-0.053-47.19c-0.041-44.217-0.3126-47.863-4.3222-57.865-6.0343-15.053-20.538-32.344-32.131-38.306-5.4281-2.7916-8.6246-4.2031-18.148-4.5387z" fill="#af9bce" stroke-width="1.4065"/><path d="m-3876.5-9209.7c-25.578-9e-4 -32.987 3.5569-44.984 21.603-4.9549 7.4531-10.859 17.734-13.121 22.847-5.661 12.798-6.8567 32.37-2.7086 44.323 6.4118 18.474 6.2372 48.975-0.8221 144.17-2.365 31.889-0.4417 45.37 10.409 72.944 4.6397 11.791 9.5319 26.409 10.871 32.487 3.8307 17.39 11.3 30.564 20.184 35.596 8.6262 4.8861 14.451 5.3181 30.893 2.2946 13.628-2.506 83.662-24.967 113.52-36.406 11.652-4.4654 33.755-12.453 49.116-17.749 50.803-17.518 69.799-30.67 76.227-52.781 3.3397-11.487 2.9945-14.525-5.3227-46.98-3.86-15.062-5.3129-24.503-4.5402-29.5 1.3647-8.8251 18.557-50.175 29.779-71.623 13.671-26.13 12.819-46.958-2.526-61.716-13.494-12.978-19.981-15.086-45.463-14.782-21.378 0.2563-30.26 1.1135-65.489 6.3197-9.0047 1.3325-19.433 1.8426-23.174 1.1374-3.7408-0.7044-16.742-6.802-28.892-13.549-12.15-6.7467-30.325-15.346-40.389-19.11-10.064-3.7645-24.366-9.6966-31.782-13.183-12.287-5.7777-15.105-6.341-31.78-6.3415z" fill="#ffa98d" stroke-width="1.4065"/><path d="m-1940.6-9631.9c-7.5426-0.6818-15.533 2.2036-24.389 8.6189-4.1734 3.0232-16.997 17.799-28.497 32.835-11.5 15.036-25.779 31.749-31.728 37.138s-28.586 21.608-50.303 36.042c-29.537 19.631-45.552 28.872-63.563 36.675-18.234 7.9013-26.004 12.404-32.018 18.556-8.7728 8.9739-16.581 23.914-20.132 38.522-6.3963 26.312-21.295 44.631-47.304 58.162-25.357 13.192-36.6 26.82-34.861 42.252 2.0731 18.395 20.963 34.902 58.864 51.439 36.913 16.105 45.876 27.746 44.245 57.468-1.137 20.712-4.6594 27.372-27.417 51.835-24.272 26.092-28.946 34.841-28.999 53.965-0.03 13.612 0.437 15.311 5.9379 22.151 10.857 13.502 28.245 22.12 51.3 25.426 19.705 2.825 77.351 2.4249 104.08-0.7218 29.821-3.5114 50.522-8.1939 75.178-17.006 26.513-9.4762 42.635-19.092 58.348-34.803 26.362-26.357 34.135-52.766 34.345-116.69 0.1288-39.155 0.067-39.74-7.0966-69.882-12.094-50.872-12.799-76.297-3.3219-119.84 15.81-72.64 15.861-73.012 14.775-105.94-1.5437-46.838-9.3571-75.191-25.745-93.419-7.0609-7.8534-14.155-12.101-21.697-12.783z" fill="#fc9248" stroke-width="1.4065"/><path d="m-3880.7-9716.7c-9.4456-0.03-18.808 4.4153-27.58 13.47-16.48 17.008-22.566 41.623-22.46 90.838 0.065 29.845 3.783 65.012 10.96 103.65 1.5378 8.2757 4.13 29.078 5.7611 46.228 1.6307 17.15 3.8604 36.816 4.9557 43.702 2.2757 14.302 1.4212 24.422-5.373 63.563-6.1336 35.336-5.4707 52.836 2.6129 68.999 7.8394 15.675 17.822 22.272 54.027 35.699 16.728 6.2039 34.315 13.723 39.082 16.708 10.662 6.6766 21.377 11.005 32.752 13.232 27.963 5.4747 83.432-2.2377 106.61-14.824 11.872-6.4472 22.858-18.88 27.108-30.683 1.8207-5.0578 6.6221-16.13 10.668-24.605 9.1517-19.168 21.894-58.336 25.917-79.666 4.3568-23.096 4.0477-48.521-0.7017-57.83-6.6352-13.006-19.615-22.139-47.678-33.542-16.686-6.7806-60.775-34.926-74.322-47.446-13.413-12.396-37.71-44.205-49.487-64.788-4.6201-8.0758-15.944-33.184-25.163-55.798-9.2202-22.613-19.167-45.283-22.104-50.378-13.873-24.068-29.847-36.49-45.59-36.526z" fill="#d3a9bf" stroke-width="1.4065"/><path d="m-1977-10149c-7.0602 0.21-14.345 1.015-21.511 2.47-12.139 2.463-24.634 2.693-78.947 1.457-70.818-1.612-107.17 0.52-131.33 7.702-21.942 6.523-28.309 14.45-37.23 46.351-2.7865 9.964-7.9575 23.317-11.492 29.673-9.5487 17.176-14.145 32.819-15.604 53.108-0.7469 10.388-3.2815 24.343-5.9229 32.606-3.3635 10.526-5.1345 22.288-6.5222 43.339-2.8353 43.001-6.8921 55.551-26.776 82.824-39.672 54.416-42.439 61.29-43.39 107.86-0.4823 23.596-1.3661 31.187-4.8232 41.412-6.0208 17.807-10.281 23.821-24.407 34.457-31.171 23.469-38.834 54.612-17.803 72.344 8.2886 6.9886 15.596 10.022 32.921 13.666 7.6295 1.6051 15.212 4.0526 16.851 5.4399 1.6385 1.3868 13.615 8.8462 26.617 16.576 33.529 19.932 37.552 23.991 46.803 47.219 9.5198 23.904 15.169 32.569 24.418 37.452 10.393 5.4865 23.673 5.1182 35.839-0.9928 10.611-5.3297 19.824-12.394 39.748-30.48 13.075-11.868 42.787-32.038 60.195-40.862 5.5701-2.8233 20.095-9.389 32.278-14.589 12.182-5.2 28.103-12.974 35.378-17.277 26.325-15.568 54.329-47.721 67.663-77.687 2.8288-6.3562 10.156-31.493 16.283-55.859 8.7016-34.604 13.566-49.766 22.22-69.264 6.0937-13.73 12.324-28.465 13.847-32.744 9.7271-27.345 11.258-62.732 4.3788-101.2-6.2133-34.745-5.8011-57.261 1.7374-94.841 13.891-69.247 12.892-109.54-3.1548-127.28-7.9146-8.752-27.08-13.506-48.262-12.881z" fill="#e5bec3" stroke-width="1.4065"/><path d="m-2421.8-10166c-19.958-0.179-41.256 2.24-62.087 7.275-48.234 11.657-69.042 12.224-112.68 3.073-24.815-5.203-39.192-5.959-52.969-2.786-23.446 5.4-50.266 25.527-60.237 45.203-10.198 20.125-11.926 29.898-11.743 66.349 0.1472 28.68 0.9606 37.586 5.4505 59.71 7.2108 35.529 6.393 47.149-5.5282 78.61-4.9419 13.043-10.598 31.245-12.568 40.45-1.9702 9.2043-6.7552 24.329-10.635 33.611-12.756 30.521-11.204 54.659 4.2735 66.463 9.8482 7.5118 24.095 6.9429 49.575-1.9793 10.594-3.7095 26.628-7.9167 35.632-9.348 52.964-8.4198 107.29 4.3545 127.47 29.972 20.05 25.453 23.622 31.146 28.647 45.66 6.3491 18.338 13.259 29.333 21.645 34.447 13.031 7.9455 30.985 3.3079 44.314-11.445 21.121-23.378 33.333-64.789 46.552-157.85 9.833-69.221 12.227-76.07 44.139-126.39 16.572-26.129 27.128-48.374 31.202-65.746 4.6164-19.69 3.024-53.123-3.395-71.258-10.037-28.359-27.723-46.945-53.003-55.701-15.478-5.362-34.099-8.142-54.058-8.321z" fill="#e19c34" stroke-width="1.4065"/><path d="m-3099.5-10177c-25.593-0.568-48.554 3.024-66.309 10.662-11.3 4.861-25.428 19.335-28.775 29.476-3.7927 11.493-1.7275 27.284 5.4001 41.278 10.12 19.872 35.446 55.726 71.646 101.43 8.8447 11.167 19.105 40.45 35.515 101.37 6.2091 23.046 26.319 31.931 66.796 29.515 32.588-1.9451 45.082 1.2178 74.281 18.801 12.47 7.5089 28.098 16.088 34.728 19.063 6.631 2.9754 12.056 6.2322 12.056 7.2379 0 1.7229 21.011 25.135 33.707 37.558 3.1783 3.11 9.2458 7.2389 13.483 9.1749 4.2371 1.9359 12.039 3.5198 17.336 3.5198 17.337 0 29.115-8.1632 38.487-26.676 9.9505-19.656 15.514-88.623 10.594-131.33-3.5585-30.88-2.5415-52.053 4.1581-86.528 10.095-51.95 9.4835-75.344-2.5867-99.003-9.8342-19.277-37.582-40.613-66.585-51.198-41.028-14.973-68.138-17.35-110.23-9.666-12.183 2.224-32.554 4.549-45.269 5.166-20.457 0.993-26.218 0.496-50.079-4.309-16.695-3.361-32.999-5.2-48.355-5.542z" fill="#af9cc9" stroke-width="1.4065"/><path d="m-3820.5-10177c-23.457 0.124-30.141 0.909-37.714 3.172-6.3564 1.9-15.041 4.004-19.299 4.676-11.587 1.828-22.586 8.735-26.447 16.609-1.9658 4.009-4.2143 15.644-5.3942 27.912-1.1126 11.571-3.6703 30.573-5.6835 42.226-2.0132 11.654-4.576 30.721-5.6955 42.375-1.119 11.653-2.8901 26.388-3.9355 32.745-2.504 15.215-2.443 53.746 0.115 74.15 1.241 9.899 4.9385 23.958 9.4456 35.919 4.0736 10.809 7.9836 22.536 8.6886 26.059 2.6104 13.038 11.316 37.599 17.682 49.883 3.6508 7.0446 14.862 22.066 25.282 33.874 10.297 11.669 22.377 26.341 26.845 32.606 4.4667 6.2648 14.346 17.459 21.953 24.875 17.798 17.352 26.199 30.51 47.336 74.156 19.908 41.11 29.176 56.179 49.25 80.076 26.307 31.319 77.767 88.035 108.8 102.18 16.238 7.3996 47.494 16.544 70.959 20.761 39.766 7.1449 62.06 0.2475 73.06-22.6 6.6576-13.828 7.6988-28.617 4.1365-58.738-6.165-52.139-34.654-112.37-16.72-153.56 12.035-27.642 41.838-36.274 41.838-57.54 0.041-43.838-41.834-80.167-89.946-134.01-21.602-24.174-34.282-42.115-55.818-78.973-7.7374-13.242-17.11-28.375-20.83-33.629-8.6131-12.17-12.44-20.91-20.441-46.684-3.5524-11.445-8.7695-26.877-11.594-34.293-7.0869-18.603-29.278-57.425-39.099-68.398-10.618-11.864-29.585-24.083-47.143-30.371-13.844-4.958-14.986-5.046-69.931-5.388-12.2-0.08-21.884-0.108-29.703-0.07z" fill="#fa8854" stroke-width="1.4065"/><path d="m-3379.1-10183c-38.773-0.704-128.57 9.506-155.15 18.651-42.986 14.788-62.359 50.736-47.298 87.762 2.5857 6.356 11.711 22.392 20.278 35.634 8.5671 13.243 18.826 30.577 22.796 38.523 18.945 37.912 27.495 48.398 64.312 78.871 24.032 19.891 38.947 36.629 48.333 54.239 4.7342 8.8817 6.7147 16.013 8.7471 31.493 2.945 22.441 7.0255 32.213 17.165 41.115 13.225 11.612 25.933 12.08 50.032 1.8376 20.787-8.8342 35.759-9.204 60.86-1.5043 25.543 7.8351 34.321 12.228 54.67 27.358 9.0054 6.6964 21.409 15.472 27.562 19.502 6.1529 4.0296 14.219 9.5215 17.927 12.204 9.0608 6.5569 19.125 5.3754 28.07-3.2947 5.2108-5.0503 8.0657-11.32 15.194-33.378 11.396-35.262 12.926-44.452 13.194-79.165 0.1771-23.226-0.616-32.743-4.0423-48.525-2.3444-10.797-4.2628-23.443-4.2628-28.102 0-12.924-6.8238-37.196-15.318-54.484-7.7682-15.811-26.038-41.521-49.104-69.102-7.0382-8.415-15.533-20.433-18.876-26.706-8.9138-16.724-21.014-29.083-41.77-42.66-10.136-6.63-27.916-19.035-39.509-27.565-24.466-18.002-45.159-28.816-60.655-31.698-3.1233-0.581-7.6213-0.904-13.16-1.005z" fill="#d3a9bf" stroke-width="1.4065"/><path d="m-3023.8-8871c-3.483 0.1771-5.6966 2.7673-13.486 12.408-5.8698 7.265-24.208 26.106-40.751 41.87-25.045 23.864-32.547 32.378-44.828 50.876-33.677 50.721-43.07 76.462-48.836 133.81-5.6724 56.424 5.819 87.456 42.98 116.05 31.019 23.871 34.792 23.78 73.116-1.7558 51.685-34.437 52.297-35.208 60.074-75.657 14.15-73.633 14.71-78.335 14.181-120.38-0.4672-36.93-0.1541-41.061 4.7988-63.786 3.0541-14.01 5.3062-30.32 5.3362-38.522 0-7.8238 0.899-19.859 1.953-26.745 3.4112-22.286 4.3033-20.226-8.7321-20.226h-11.558l-12.522 24.325c-6.8859 13.379-13.708 25.73-15.162 27.447-3.6007 4.2536-9.3585 3.9353-10.797-0.5967-1.191-3.7522 9.518-38.905 15.2-49.891 3.3948-6.5649 3.0596-6.9986-6.8065-8.7763-1.697-0.3056-2.9991-0.515-4.1604-0.4552z" fill="#af9bce" stroke-width="1.4065"/><path d="m-2835.8-8878c-3.858-0.028-9.4135 1.1604-18.413 3.0287l-11.063 2.2966-0.5587 33.131c-0.3099 18.223-1.195 33.767-1.9709 34.543-3.2434 3.2441-5.8574-3.9873-7.1965-19.904-1.5862-18.865-5.484-41.163-7.6111-43.542-0.7625-0.8525-7.0874-0.5562-14.055 0.6574l-12.669 2.205-6.6996 14.108c-15.529 32.697-17.035 39.818-18.75 88.593-0.8565 24.366-3.0705 61.502-4.9213 82.524-4.7887 54.386-3.8561 59.868 17.439 102.39 32.211 64.312 38.641 70.085 78.16 70.188 15.459 0.053 26.28-1.2877 45.921-5.6332 14.133-3.1274 30.601-7.9292 36.596-10.672 21.312-9.7502 37.984-33.98 47.496-69.031 2.8365-10.451 7.1624-24.335 9.6154-30.854 2.454-6.518 5.4915-17.082 6.7495-23.477 3.0778-15.644 0.4302-24.763-11.272-38.85-13.685-16.472-14.777-18.56-24.349-46.507-11.47-33.485-12.236-34.832-30.874-54.205-8.7217-9.066-19.121-21.648-23.11-27.958-3.9887-6.3103-11.912-17.227-17.607-24.259-5.6954-7.0315-13.62-18.733-17.609-26.003-5.0992-9.2942-6.8157-12.718-13.246-12.764z" fill="#fa8854" stroke-width="1.4065"/><path d="m-3138.5-8927.6-24.702 15.664c-72.917 46.232-107.08 73.648-163.22 131.01-58.667 59.936-62.768 65.645-62.726 87.341 0.053 23.912 8.9736 45.444 35.747 86.191 33.186 50.507 40.521 54.175 80.746 40.39 50.554-17.327 57.215-27.576 84.756-130.44 5.7898-21.622 10.67-34.03 18.94-48.153 3.1019-5.2971 11.665-20.89 19.03-34.652 15.182-28.37 27.968-44.987 49.695-64.572 15.422-13.903 26.955-29.232 26.914-35.775 0-2.6607-4.5636-6.0464-16.375-12.194-20.12-10.472-19.422-10.723-45.147 16.207-28.539 29.877-32.727 33.716-36.771 33.716-7.1658 0-4.3406-8.6946 7.6788-23.636 17.102-21.258 29.124-34.216 37.126-40.013l7.1667-5.1887-9.4277-7.9489z" fill="#e19c34" stroke-width="1.4065"/><path d="m-2715-8944.9c-0.7055 0-5.8006 5.6372-11.322 12.528-11.36 14.177-11.497 12.215 2.2895 32.736 4.2704 6.356 12.904 16.616 19.187 22.798 7.6066 7.4858 10.781 11.886 9.5001 13.167-2.3996 2.3996-10.542-1.5923-26.949-13.208-9.6895-6.8603-18.569-16.502-28.778-31.252-0.2994-0.4358-2.0694 0.5725-3.9298 2.2395-4.2701 3.8258-27.994 15.614-37.671 18.717-4.027 1.2921-7.0607 2.9169-6.7409 3.6112 1.6144 3.5054 37.862 50.972 58.331 76.383 12.8 15.89 27.532 34.525 32.739 41.411 5.2069 6.8864 18.664 22.056 29.904 33.709 11.241 11.653 26.962 29.421 34.937 39.485 23.478 29.631 35.988 40.054 65.551 54.615 14.116 6.9531 27.831 13.035 30.479 13.517 8.1113 1.4754 27.14-0.7959 36.522-4.3614 19.251-7.3149 50.05-27.784 71.186-47.31 31.867-29.439 42.426-43.618 39.921-53.6-1.9545-7.7878-14.49-22.916-32.916-39.723-23.452-21.391-33.239-27.493-68.244-42.535-52.064-22.374-70.112-32.263-128.33-70.309-18.01-11.77-39.246-27.319-47.192-34.553-13.057-11.888-35.235-28.064-38.476-28.064z" fill="#e5bec3" stroke-width="1.4065"/><path d="m-3198.9-9041.2c-6.8842 0-23.494 8.2341-46.849 23.225-12.712 8.1598-34.381 20.879-48.153 28.264-13.772 7.3855-32.842 18.207-42.376 24.049-9.5348 5.8413-25.47 14.705-35.413 19.698-9.9433 4.9927-24.679 13.201-32.745 18.239-8.0672 5.0381-23.741 14.17-34.831 20.295-31.958 17.648-67.947 42.216-77.651 53.009-12.955 14.409-17.194 27.145-17.323 52.065-0.059 11.124 0.9501 23.952 2.2408 28.51 3.0795 10.876 12.798 20.094 34.149 32.383 9.4112 5.4169 24.914 14.793 34.448 20.838 20.105 12.747 22.609 12.854 39.485 1.7012 20.89-13.806 42.65-32.036 53.26-44.622 39.093-46.371 87.683-92.214 124.97-117.91 12.677-8.7343 29.853-20.548 38.169-26.255 8.3161-5.7072 24.568-15.115 36.115-20.906 11.547-5.791 20.995-10.948 20.995-11.46 0-0.5095-2.8169-4.6213-6.2597-9.1328-3.4436-4.5115-8.8614-12.327-12.039-17.366-3.1777-5.0387-6.6455-8.7739-7.7051-8.3019-15.113 6.7331-65.325 27.077-70.724 28.655-13.93 4.0711-11.022-3.4398 4.3482-11.228 4.9417-2.5044 17.356-10.228 27.587-17.165 11.61-7.8715 21.42-13.063 26.099-13.812l7.4973-1.1983-4.3317-12.786c-2.3824-7.0327-5.4291-18.637-6.7708-25.788-2.0211-10.776-3.0815-13.002-6.1968-13.002z" fill="#e5bec3" stroke-width="1.4065"/><path d="m-2643.9-9097.3c-2.6538-0.037-5.1581-0.03-7.5056 0.023-6.2528 0.1357-11.389 0.5877-15.25 1.3599l-6.0196 1.2039-0.1426 15.649c-0.081 8.6076-0.795 20.243-1.5939 25.856-0.7979 5.6125-0.8051 10.604 0 11.092 0.7907 0.4886 9.0916 3.1072 18.447 5.8176 21.085 6.1089 45.364 15.72 47.196 18.685 2.3571 3.8139-2.406 7.169-10.174 7.169-4.0945 0-15.473-2.0833-25.286-4.63-9.812-2.5466-21.86-5.2312-26.773-5.9648l-8.932-1.3339-3.371 10.299c-2.5767 7.8732-16.797 39.53-21.58 48.039-0.3519 0.6294 4.8014 4.0161 11.456 7.5268 13.467 7.1036 21.589 13.007 40.027 29.092 14.571 12.71 66.48 50.187 83.271 60.12 14.461 8.5549 51.469 23.115 89.12 35.062 15.89 5.0425 33.659 11.32 39.485 13.951 18.478 8.341 31.39 11.993 38.387 10.855 3.6326-0.59 13.94-4.1097 22.904-7.8205h-0.03c22.837-9.4535 37.687-12.138 67.344-12.177 17.415 0 27.562-0.8831 31.781-2.6937 7.3963-3.1736 15.043-11.226 26.741-28.159 4.757-6.8861 13.347-19.04 19.092-27.011 5.7447-7.9704 13.454-20.442 17.13-27.716 5.9849-11.84 6.7623-15.193 7.4389-32.032 1.2605-31.394-4.9804-43.122-35.048-65.86-8.6205-6.5185-22.031-17.359-29.801-24.088-18.188-15.75-30.972-24.161-46.546-30.628-11.433-4.7478-15.614-5.3231-48.154-6.6246-22.898-0.9151-42.173-2.789-53.931-5.2433-32.898-6.8658-51.43-8.6621-75.092-7.2785-19.729 1.154-27.908 0.504-69.822-5.5274-30.318-4.364-56.195-6.7558-74.77-7.0109z" fill="#ffa98d" stroke-width="1.4065"/><path d="m-3203.5-9162.5c-3.5507-0.023-7.3611 0-11.302 0.046-15.764 0.1864-33.625 0.8666-45.388 1.9507-12.183 1.1235-37.612 4.1543-56.508 6.7352-18.896 2.5811-41.923 4.6928-51.172 4.6928-10.823 0-21.918 1.382-31.132 3.8765-28.809 7.8002-38.71 9.6988-64.774 12.418-14.623 1.5255-29.819 3.7184-33.767 4.8738-12.273 3.5928-34.884 20.35-52.928 39.225-33.602 35.148-46.147 74.719-32.223 101.64 6.51 12.589 18.792 21.542 53.04 38.668 42.289 21.146 40.585 20.624 54.701 16.73 14.775-4.0764 50.124-21.505 74.469-36.717 22.572-14.102 60.949-32.156 98.971-46.559 7.463-2.8271 26.964-11.729 43.338-19.782 33.253-16.354 47.662-21.921 56.746-21.921h6.1503l1.2694-19.743c0.6988-10.858 1.8205-22.239 2.4906-25.291l1.2184-5.5464-17.127 1.3325c-9.4196 0.7335-24.494 2.5121-33.499 3.9523-13.899 2.2226-39.083 5.4162-45.104 5.7202-0.9716 0.053-2.1135-0.9515-2.5379-2.2243-0.4306-1.292 4.5714-5.012 11.32-8.4183 11.503-5.8068 40.973-13.018 77.848-19.049l13.599-2.2242 3.9238-16.113 3.9241-16.113-4.0382-1.0841c-2.5328-0.6804-10.853-1.0261-21.506-1.0782z" fill="#ffa98d" stroke-width="1.4065"/><path d="m-2407.8-9311.8c-34.334 0-49.069 3.2517-83.626 18.508-23.326 10.298-32.622 13.394-51.206 17.058-8.7681 1.7287-20.852 7.581-50.08 24.248-77.504 44.197-99.196 58.546-99.196 65.621 0 4.5872 5.7156 14.1 8.4719 14.1 1.4276 0 6.557-1.754 11.4-3.8955 8.8294-3.9059 45.68-15.366 49.409-15.366 8.7199 0-16.587 19.441-40.149 30.841l-16.133 7.8047 1.291 7.1622c0.7103 3.9385 2.0668 12.236 3.0145 18.439 0.9473 6.2034 1.9907 11.528 2.3206 11.831 0.3307 0.3045 4.9338-0.1955 10.231-1.1056s26.966-2.214 48.153-2.8992c30.644-0.9908 42.71-0.611 58.995 1.8626 11.26 1.7102 29.918 3.1097 41.463 3.1097 24.085 0 45.158 2.2662 73.557 7.9108 23.771 4.7255 69.063 9.187 81.199 7.9988 4.7672-0.4671 13.774-2.084 20.014-3.5934 6.2402-1.5104 14.907-4.3379 19.26-6.2861 21-9.3963 63.896-49.152 72.798-67.471 6.1376-12.628 6.6135-24.475 1.644-40.838-3.6875-12.14-5.7907-15.5-16.121-25.746-14.306-14.189-81.033-55.391-103.37-63.831-13.516-5.106-16.306-5.4646-43.338-5.4646z" fill="#d3a9bf" stroke-width="1.4065"/><path d="m-3517.5-9403.4c-20.405 0-23.278 3.0109-45.671 47.867-26.185 52.451-33.558 81.612-27.66 109.42 7.7091 36.345 20.565 49.298 59.874 60.328 26.938 7.559 34.842 7.8009 157.14 4.8513 22.776-0.5497 50.948-2.2725 62.601-3.8287 28.454-3.8009 105.52-5.7977 125.17-3.243 11.593 1.5057 15.733 1.4392 16.825-0.2792 2.3835-3.7482 1.7735-4.9296-4.1166-7.9751-3.0925-1.5994-11.11-7.1111-17.816-12.25-13.035-9.9857-49.175-33.124-57.94-37.094-5.8225-2.637-6.9777-7.0359-2.318-8.8236 5.2499-2.015 28.298 6.9362 45.174 17.544 9.0047 5.6598 20.885 12.935 26.4 16.166 5.515 3.2319 12.18 7.2894 14.814 9.0139 4.731 3.0999 4.8338 3.0418 8.8998-4.9272 5.6794-11.134 3.4067-15.892-18.204-38.142-23.82-24.524-31.472-29.7-57.59-38.969-14.232-5.0503-30.753-12.907-45.099-21.443-31.843-18.948-30.957-18.548-92.4-41.785-30.491-11.532-64.972-24.634-76.625-29.116-29.211-11.234-54.31-17.317-71.448-17.317z" fill="#fc9248" stroke-width="1.4065"/><path d="m-2436.1-9551.5c-2.6016 0-5.5717 0.1197-9.2754 0.3341-17.858 1.0296-28.742 4.5925-47.21 15.451-15.188 8.9301-51.479 38.202-73.174 59.023-10.176 9.7654-24.893 21.284-35.634 27.892-50.113 30.825-82.436 56.598-129.05 102.9-21.718 21.57-44.035 42.62-49.596 46.78-5.5623 4.1602-10.096 8.6207-10.096 9.9114s6.1034 6.1029 13.544 10.694c7.4412 4.5911 17.411 11.307 22.153 14.926 4.7416 3.6195 9.2623 6.5559 10.048 6.5559 0.7856 0 5.516-6.297 10.513-13.964 12.961-19.888 40.205-50.172 42.802-47.575 1.4407 1.4414 0.7596 4.1474-2.3108 9.1731-5.1586 8.4429-33.865 63.923-34.737 67.136-0.6519 2.3992 18.837 29.274 21.355 29.451 0.8371 0.059 4.8312-1.5834 8.8784-3.648 4.0468-2.0647 15.931-10.109 26.408-17.877 43.685-32.389 62.435-44.438 81.909-52.633 6.3319-2.6651 18.766-9.8751 27.633-16.021 13.963-9.6789 21.103-12.869 53.344-23.822 20.472-6.9554 55.858-18.479 78.635-25.608 57.192-17.901 86.444-27.641 92.647-30.849 5.099-2.6361 29.794-33.659 35.497-44.592 6.7158-12.875 1.5658-29.424-15.701-50.455-9.6367-11.738-17.648-18.96-41.177-37.124-20.264-15.644-33.389-23.091-54.166-30.732-10.952-4.0275-15.43-5.2954-23.234-5.3254z" fill="#af9bce" stroke-width="1.4065"/><path d="m-2635.1-9723.2c-9.6428 0.1518-19.911 1.8206-30.852 4.9936-44.274 12.841-64.72 24.61-96.947 55.808-39.455 38.195-54.376 61.71-74.402 117.25-10.369 28.756-16.796 54.539-23.352 93.668-3.4143 20.377-7.8458 37.173-16.387 62.118-11.109 32.446-14.697 51.273-10.099 52.976 0.8828 0.3255 7.6654 3.0501 15.073 6.0516l13.468 5.4562 5.1317-8.9867c2.8231-4.9426 13.534-18.476 23.8-30.074 26.004-29.375 25.6-28.993 28.024-26.569 1.4825 1.4825-2.0307 8.3367-12.304 24.002-20.817 31.741-29.246 47.705-26.59 50.36 2.1294 2.1293 23.209 14.245 25.543 14.682 0.6594 0.1266 6.7271-4.1903 13.483-9.5845 6.7566-5.3937 21.559-18.769 32.895-29.724 11.337-10.954 26.127-24.334 32.866-29.735 6.7394-5.4009 15.597-13.82 19.685-18.71 4.0878-4.8905 22.669-20.196 41.292-34.011 18.623-13.816 41.113-31.061 49.978-38.324 8.8652-7.2629 21.432-16.758 27.928-21.099 16.692-11.153 20.69-15.208 39.032-39.574 26.716-35.493 26.889-36.89 11.609-92.977-2.7412-10.064-5.922-26.006-7.0679-35.426-2.5965-21.343-4.6095-26.167-17.259-41.367-16.76-20.14-36.655-30.46-60.454-31.172-1.3524-0.041-2.7164-0.05-4.0941-0.028z" fill="#e19c34" stroke-width="1.4065"/><path d="m-3316.7-9738.5c-17.038 0.253-32.454 12.458-54.756 40.184-40.946 50.904-54.664 85.734-54.664 138.92 0 21.89 0.7304 28.488 4.6491 41.722 8.7618 29.587 27.392 52.952 67.921 85.181 12.708 10.105 33.515 27.941 46.237 39.635 30.494 28.03 35.522 32.006 68.38 54.076 45.852 30.799 81.748 62.284 92.696 81.308 3.2006 5.562 6.3933 10.112 7.094 10.112 0.7004 0 7.137-6.2833 14.304-13.964 7.1663-7.6807 13.03-14.197 13.031-14.48 5e-4 -0.2829-4.4503-7.652-9.8889-16.373-12.22-19.596-36.339-62.86-36.339-65.185 0-5.1681 6.5361 0.1518 18.412 14.986 7.3534 9.1848 19.654 24.563 27.334 34.174s13.965 18.195 13.965 19.075c0 2.9185 4.6283 0.4789 24.522-12.915 21.987-14.807 22.985-16.543 21.288-37.007-0.6921-8.3456-4.0193-16.863-15.577-39.879-13.422-26.726-38.579-82.575-59.169-131.35-16.128-38.207-34.804-71.166-60.894-107.46-44.416-61.782-82.606-103.86-103.51-114.04-9.2141-4.4888-17.295-6.8442-25.04-6.7292z" fill="#af9cc9" stroke-width="1.4065"/><path d="m-3011.1-9797.9c-42.267 0.3048-65.716 19.474-80.312 64.737-9.6465 29.913-11.635 47.064-10.092 87.032 0.718 18.577 2.2132 42.01 3.3234 52.074 2.056 18.631 25.847 116.39 36.75 151.01 7.6833 24.394 33.199 75.93 45.238 91.371 8.8977 11.412 9.58 11.869 16.035 10.728 3.7078-0.6553 11.291-1.8209 16.852-2.59 5.5605-0.7698 10.496-1.7851 10.967-2.2562 0.4724-0.4727-0.7349-6.9236-2.6817-14.338-11.272-42.934-14.059-66.581-10.841-91.982 1.1388-8.9879 2.0502-11.068 4.6359-10.578 2.1292 0.4042 3.4155 2.8859 3.8014 7.3356 2.8336 32.665 20.092 106.43 25.739 110.01 1.4131 0.8958 7.9878 1.7724 14.609 1.9473 6.6209 0.1725 13.104 0.4041 14.408 0.51 1.5023 0.1195 4.0105-7.5677 6.8458-20.995 2.4611-11.653 8.679-40.256 13.817-63.562 11.521-52.254 15.26-79.487 17.423-126.88 1.7413-38.168 0.5766-60.841-5.0042-97.439-4.8231-31.625-9.2327-45.937-22.01-71.427-30.159-60.162-44.936-72.291-90.797-74.52-2.988-0.1449-5.8894-0.2185-8.7072-0.1886z" fill="#d3a9bf" stroke-width="1.4065"/><path d="m-2950.9-9317.6c19.971 0.3662 42.818 2.8139 54.788 6.5637 24.166 7.5697 89.791 41.907 117.49 61.475 26.95 19.038 42.922 38.947 60.624 75.578 11.561 23.921 14.654 41.238 14.654 81.721 0 45.533-5.1188 66.755-26.184 108.83-17.627 35.206-32.364 51.06-59.09 63.566-13.159 6.1586-31.481 10.54-93.054 22.257-35.405 6.738-75.393 9.926-92.455 7.3706-70.946-10.624-109.81-28.033-144.79-64.86-22.195-23.366-32.914-41.479-39.284-66.387-9.0143-35.245-1.344-96.688 18.815-150.71 18.628-49.92 34.748-70.209 83.396-104.97 30.367-21.698 55.321-34.529 75.207-38.676 6.9438-1.4481 17.893-1.9782 29.876-1.7586z" fill="#e5bec3" stroke-width="1.4065"/><path d="m-3007.6-9674.8c-1.9476-0.03-4.0041 0.9275-6.1657 2.8839-4.431 4.01-4.6281 9.6927-0.9438 27.208 1.5208 7.2297 4.59 26.572 6.8208 42.984 2.2305 16.411 5.6948 38.507 7.6978 49.101 2.0032 10.594 4.6561 26.195 5.8961 34.67 1.2404 8.4749 3.0919 16.978 4.1141 18.897 1.022 1.918 2.8839 3.1458 4.1366 2.7258 1.6808-0.5628 2.1195-11.308 1.6785-41.048-1.3212-88.986-9.6-137.23-23.234-137.42zm-300.6 80.763c-8.9068 0-9.6239 6.698-2.2027 20.584 8.9359 16.72 37.524 55.048 66.357 88.962 14.074 16.555 27.138 32.483 29.029 35.396 3.4038 5.2411 8.776 7.221 8.776 3.2346 0-6.1137-21.017-40.318-42.248-68.756-23.806-31.888-44.144-61.363-50.6-73.336-2.5703-4.7663-4.5444-6.0849-9.1125-6.0849zm611.62 23.114c-8.4277 0-15.659 6.0118-23.503 19.543-3.2878 5.6709-9.4836 16.379-13.768 23.798-4.2843 7.4179-16.212 22.589-26.507 33.709-10.296 11.121-21.349 24.121-24.564 28.888-3.2146 4.7669-7.5583 10.573-9.6524 12.903-2.0984 2.3349-3.292 5.5757-2.6603 7.2227 3.4419 8.9699 15 0.7374 50.647-36.075 53.892-55.654 72.974-89.99 50.008-89.99zm255.08 108.02c-0.4805 0-1.0208 0.026-1.6284 0.065-1.62 0.098-3.7174 0.3181-6.4297 0.6252-16.211 1.8343-32.38 8.2718-54.869 21.845-10.443 6.3025-24.188 14.088-30.544 17.302-17.304 8.7475-46.89 28.637-57.785 38.848-5.2973 4.964-14.615 11.086-20.706 13.602-6.2418 2.5791-11.075 5.7883-11.075 7.3522 0 6.6044 29.56-5.1814 62.679-24.99 12.669-7.5771 28.134-15.861 34.367-18.407 22.002-8.9872 84.167-41.518 86.961-45.506 1.5568-2.2225 2.8302-5.6925 2.8302-7.7124 0-2.2051-0.4343-3.0503-3.7991-3.0228zm-1001.3 190.72c-6.0573-0.05-10.677 0.8523-14.88 2.6081-5.0218 2.0983-6.6793 3.9512-6.6793 7.4686 0 6.1776 2.579 7.8853 16.373 10.843 6.3562 1.363 19.79 5.0383 29.854 8.1676 10.064 3.1293 23.932 6.88 30.818 8.334 18.925 3.9963 36.41 1.6701 62.118-8.2615 12.152-4.6935 13.755-5.922 12.521-9.5844-0.2652-0.7853-11.317-1.5772-24.559-1.7569-21.702-0.2967-27.479-1.1998-58.581-9.165-22.802-5.8395-36.89-8.5699-46.985-8.6537zm1088.8 46.738c-0.262 0-0.5024 0.044-0.7156 0.1059-1.7059 0.4883-12.202 2.2857-23.326 3.9941-22.527 3.4606-56.537 10.92-74.156 16.264-6.3568 1.9279-22.826 4.9675-36.598 6.7554-22.453 2.9159-59.993 9.4255-68.859 11.94-1.8541 0.5264-3.3711 2.0077-3.3711 3.2938 0 1.7397 7.9258 2.1905 32.264 1.7393 44.986-0.8341 73.335-3.4969 109.23-10.259 16.993-3.2006 37.473-6.9829 45.512-8.4053 17.482-3.0945 26.172-7.2334 29.218-13.92 1.9789-4.3437 1.6988-5.3983-2.2798-8.6203-1.8699-1.5141-4.2703-2.5979-6.0732-2.8388-0.3004-0.039-0.5843-0.057-0.8463-0.048zm-971.51 135.03c-0.1541 0-0.316 0.023-0.4886 0.041-2.7605 0.3285-7.9475 2.4169-15.644 6.2751-15.871 7.9558-30.565 12.471-48.588 14.927-12.989 1.7705-49.436 11.739-60.819 16.636-12.475 5.3658-16.269 9.6872-13.33 15.179 1.9279 3.5995 3.4967 4.0676 11.228 3.3368 13.2-1.2483 59.698-14.12 75.875-21.003 16.543-7.0396 49.57-26.632 52.367-31.066 1.8811-2.9821 1.7038-4.4278-0.6002-4.3257zm750.86 82.03c-0.3288 0.024-0.611 0.067-0.8477 0.1495-0.6314 0.2232-0.9378 0.6842-0.9378 1.3824 0 6.1866 36.631 23.852 67.108 32.362 32.38 9.0413 81.17 23.86 117.26 35.614 16.122 5.2508 33.023 10.28 37.559 11.174 18.814 3.7074 35.298 0.23 33.877-7.1465-0.8585-4.4579-2.7766-5.2066-71.854-28.033-62.556-20.671-66.203-21.553-132.78-32.072-15.175-2.3976-29.003-5.8086-35.384-8.7297-7.1295-3.2642-11.702-4.8116-14.002-4.7003zm-706.4 88.708c-1.8627-0.076-5.5846 2.0063-12.191 6.5507-5.3974 3.7132-25.529 14.67-44.737 24.351-19.208 9.6802-39.692 20.602-45.519 24.27-20.142 12.68-27.232 22.562-20.801 28.992 3.5167 3.5172 6.066 2.8742 16.252-4.0998 5.1513-3.5265 19.767-12.535 32.48-20.019 36.507-21.492 76.082-51.476 76.082-57.645 0-1.5313-0.4477-2.3541-1.5656-2.3998zm636.2 77.648c-0.115 0-0.223 0-0.3269 0.03-0.2354 0.05-0.4377 0.161-0.6097 0.3354-4.4106 4.4103 14.773 25.4 56.785 62.13 13.17 11.514 32.813 31.019 43.65 43.345 19.19 21.825 23.47 24.871 28.242 20.098 13.95-13.951-38.162-71.195-88.035-96.706-16.376-8.3767-23.041-13.025-29.864-20.825-4.9716-5.6833-8.1136-8.3817-9.8425-8.4077zm-553.88 15.026c-0.5148-0.03-1.0009 0.065-1.3874 0.3043-2.0793 1.2855-29.784 39.97-41.554 58.026-4.1442 6.3561-12.292 20.224-18.108 30.818-5.8151 10.594-13.866 23.598-17.891 28.897-8.7498 11.521-12.044 19.467-10.545 25.441 1.7529 6.9825 9.7959 5.9031 13.788-1.8508 1.7728-3.4431 5.9943-9.7272 9.3801-13.965 10.326-12.923 40.224-65.322 53.577-93.898 4.8258-10.328 10.674-21.446 12.996-24.707 2.9119-4.0888 3.6029-6.5468 2.2264-7.9227-0.5486-0.5495-1.2587-0.9182-1.9602-1.0698-0.1748-0.037-0.3501-0.061-0.5217-0.071zm353.47 51.586c-3.6864 0-3.5568 5.5126 1.0771 46.23 9.2669 81.427 16.019 130.25 18.578 134.34 3.3606 5.3665 9.1045 5.5618 14.182 0.4837 5.2875-5.2872 5.0662-18.549-1.0901-65.419-4.2357-32.25-5.8636-39.694-11.387-52.076-6.7773-15.192-13.392-36.155-15.5-49.117-1.9729-12.135-2.911-14.446-5.8614-14.446zm-191.95 33.26c-0.5736 0.048-1.3042 0.5647-2.1907 1.5502-1.3613 1.5122-3.9164 9.0328-5.6797 16.711-3.5989 15.675-8.0675 23.641-22.514 40.15-12.457 14.236-21.907 33.781-25.99 53.754-3.0596 14.968-2.6925 24.989 1.1814 32.227 2.1119 3.9456 8.0873 4.5004 10.757 0.9985 1.01-1.3236 4.6385-12.296 8.0641-24.384 6.0752-21.436 12.331-36.236 19.79-46.81 5.405-7.6629 10.699-24.384 15.246-48.153 3.1141-16.279 3.7344-24.871 1.8566-25.934-0.1564-0.087-0.3295-0.1243-0.5207-0.1105z" fill="#46373f" stroke-width="1.4065"/><path d="m-2947.2-9003c0.415-0.4605 8.7149-0.7693 18.444-0.683 11.946 0.1058 24.968-1.3195 40.102-4.3882 19.649-3.9827 22.379-4.1499 22.208-1.3721-0.7563 11.741-1.1918 61.024-0.584 65.877 0.6914 5.5168 0.3011 6.1015-5.4825 8.218-6.9802 2.554-33.221 7.1741-34.393 6.0553-0.4155-0.3977-10.82-0.4419-23.12-0.096-12.3 0.3447-22.81 0.2025-23.353-0.316-1.0601-1.0119 4.916-71.892 6.1775-73.294z" fill="#fdf6ee" stroke-width="1.4065"/><path d="m-2798.6-9034.6c0.3996-0.046 0.6653 0.023 0.7557 0.1886 1.3236 2.5765 3.2724 20.719 3.7513 34.928 0.562 16.669-0.065 18.074-13.579 30.421-4.8959 4.4733-17.897 13.09-28.89 19.149l-19.989 11.015-0.1289-11.975c-0.072-6.5859 0.5614-23.009 1.3991-36.494l1.5336-24.521 21.277-7.9448c11.703-4.3691 24.133-9.7267 27.623-11.906 2.618-1.6335 5.0476-2.7192 6.2518-2.8613z" fill="#fdf6ee" stroke-width="1.4065"/><path d="m-3023.3-9011.8c1.261-0.096 2.7819 0.028 4.2562 0.3857 2.9489 0.7119 17.337 2.6866 31.975 4.3876 14.637 1.7001 27.056 3.5153 27.597 4.0324 1.2158 1.163 0.4436 14.296-2.7729 47.061-1.8327 18.676-3.0997 25.355-4.8555 25.643-5.3831 0.8092-33.543-8.1984-49.301-15.771l-16.883-8.1122 2.8418-27.47c1.5632-15.108 3.561-28.278 4.4397-29.267 0.4394-0.4945 1.4425-0.7981 2.7038-0.8892z" fill="#fdf6ee" stroke-width="1.4065"/><path d="m-2742.4-9076.7c0.3172 0.3028-0.7324 6.2518-2.3302 13.218-3.6882 16.074-19.724 52.388-29.157 66.028v-3e-4c-3.977 5.7504-8.014 10.585-8.9704 10.742-0.9565 0.1564-1.2069-6.6067-0.5884-15.026 0.6328-8.4213 0.7563-18.916 0.2648-23.323-0.4847-4.4053-0.2993-8.8276 0.4018-9.8248 0.7023-0.9978 7.642-7.48 15.422-14.404 7.7809-6.925 16.446-16.049 19.257-20.276 2.811-4.2267 5.3691-7.4379 5.6875-7.1338z" fill="#fdf6ee" stroke-width="1.4065"/><path d="m-3107.8-9065.5c0.085-1.0828 8.2371 4.7521 18.111 12.965 20.779 17.285 34.487 26.845 45.42 31.675l7.7483 3.4223-3.4007 26.9c-1.8702 14.795-3.7905 27.375-4.2722 27.959-2.7782 3.3746-50.679-51.892-56.958-65.716-2.7829-6.126-7.1725-30.693-6.6494-37.206z" fill="#fdf6ee" stroke-width="1.4065"/></g></g></g></svg>